<mxfile host="app.diagrams.net" agent="Mozilla/5.0 (Windows NT 10.0; Win64; x64) AppleWebKit/537.36 (KHTML, like Gecko) Chrome/134.0.0.0 Safari/537.36" version="26.2.5">
  <diagram name="Page-1" id="Sayjuu3OWUjIjzeAwM1c">
    <mxGraphModel dx="1027" dy="464" grid="1" gridSize="10" guides="1" tooltips="1" connect="1" arrows="1" fold="1" page="1" pageScale="1" pageWidth="850" pageHeight="1100" math="0" shadow="0">
      <root>
        <mxCell id="0" />
        <mxCell id="1" parent="0" />
        <mxCell id="a3z0yzDK9rBx7ZHJhSU1-23" style="edgeStyle=orthogonalEdgeStyle;rounded=0;orthogonalLoop=1;jettySize=auto;html=1;" parent="1" source="a3z0yzDK9rBx7ZHJhSU1-2" target="a3z0yzDK9rBx7ZHJhSU1-22" edge="1">
          <mxGeometry relative="1" as="geometry" />
        </mxCell>
        <mxCell id="a3z0yzDK9rBx7ZHJhSU1-2" value="Translate Schema" style="rounded=1;whiteSpace=wrap;html=1;absoluteArcSize=1;arcSize=14;strokeWidth=2;fillColor=#dae8fc;strokeColor=#6c8ebf;" parent="1" vertex="1">
          <mxGeometry x="82" y="150" width="100" height="100" as="geometry" />
        </mxCell>
        <mxCell id="a3z0yzDK9rBx7ZHJhSU1-4" style="edgeStyle=orthogonalEdgeStyle;rounded=0;orthogonalLoop=1;jettySize=auto;html=1;entryX=0.5;entryY=0;entryDx=0;entryDy=0;" parent="1" source="a3z0yzDK9rBx7ZHJhSU1-3" target="a3z0yzDK9rBx7ZHJhSU1-2" edge="1">
          <mxGeometry relative="1" as="geometry" />
        </mxCell>
        <mxCell id="a3z0yzDK9rBx7ZHJhSU1-3" value="Schema" style="strokeWidth=2;html=1;shape=mxgraph.flowchart.multi-document;whiteSpace=wrap;fillColor=#e1d5e7;strokeColor=#9673a6;" parent="1" vertex="1">
          <mxGeometry x="88" y="60" width="88" height="60" as="geometry" />
        </mxCell>
        <mxCell id="xqS-gfhVwGy7xidowy4n-6" style="edgeStyle=orthogonalEdgeStyle;rounded=0;orthogonalLoop=1;jettySize=auto;html=1;entryX=0;entryY=0.5;entryDx=0;entryDy=0;" parent="1" source="a3z0yzDK9rBx7ZHJhSU1-5" target="a3z0yzDK9rBx7ZHJhSU1-9" edge="1">
          <mxGeometry relative="1" as="geometry">
            <Array as="points">
              <mxPoint x="370" y="200" />
              <mxPoint x="370" y="320" />
            </Array>
          </mxGeometry>
        </mxCell>
        <mxCell id="a3z0yzDK9rBx7ZHJhSU1-5" value="Calculate loci self-score" style="rounded=1;whiteSpace=wrap;html=1;absoluteArcSize=1;arcSize=14;strokeWidth=2;fillColor=#dae8fc;strokeColor=#6c8ebf;" parent="1" vertex="1">
          <mxGeometry x="240" y="150" width="100" height="100" as="geometry" />
        </mxCell>
        <mxCell id="a3z0yzDK9rBx7ZHJhSU1-7" value="Create BLAST database" style="rounded=1;whiteSpace=wrap;html=1;absoluteArcSize=1;arcSize=14;strokeWidth=2;fillColor=#dae8fc;strokeColor=#6c8ebf;" parent="1" vertex="1">
          <mxGeometry x="240" y="390" width="100" height="100" as="geometry" />
        </mxCell>
        <mxCell id="xqS-gfhVwGy7xidowy4n-9" value="" style="edgeStyle=orthogonalEdgeStyle;rounded=0;orthogonalLoop=1;jettySize=auto;html=1;" parent="1" source="a3z0yzDK9rBx7ZHJhSU1-9" target="a3z0yzDK9rBx7ZHJhSU1-11" edge="1">
          <mxGeometry relative="1" as="geometry" />
        </mxCell>
        <mxCell id="a3z0yzDK9rBx7ZHJhSU1-9" value="Run BLASTp" style="rounded=1;whiteSpace=wrap;html=1;absoluteArcSize=1;arcSize=14;strokeWidth=2;fillColor=#dae8fc;strokeColor=#6c8ebf;" parent="1" vertex="1">
          <mxGeometry x="400" y="270" width="100" height="100" as="geometry" />
        </mxCell>
        <mxCell id="xqS-gfhVwGy7xidowy4n-22" style="edgeStyle=orthogonalEdgeStyle;rounded=0;orthogonalLoop=1;jettySize=auto;html=1;entryX=0.497;entryY=0.85;entryDx=0;entryDy=0;entryPerimeter=0;" parent="1" source="a3z0yzDK9rBx7ZHJhSU1-11" target="a3z0yzDK9rBx7ZHJhSU1-29" edge="1">
          <mxGeometry relative="1" as="geometry">
            <Array as="points">
              <mxPoint x="580" y="240" />
              <mxPoint x="700" y="240" />
            </Array>
          </mxGeometry>
        </mxCell>
        <mxCell id="a3z0yzDK9rBx7ZHJhSU1-11" value="Write results" style="rounded=1;whiteSpace=wrap;html=1;absoluteArcSize=1;arcSize=14;strokeWidth=2;fillColor=#dae8fc;strokeColor=#6c8ebf;" parent="1" vertex="1">
          <mxGeometry x="530" y="270" width="100" height="100" as="geometry" />
        </mxCell>
        <mxCell id="xqS-gfhVwGy7xidowy4n-2" style="edgeStyle=orthogonalEdgeStyle;rounded=0;orthogonalLoop=1;jettySize=auto;html=1;entryX=0.5;entryY=1;entryDx=0;entryDy=0;" parent="1" source="a3z0yzDK9rBx7ZHJhSU1-13" target="a3z0yzDK9rBx7ZHJhSU1-5" edge="1">
          <mxGeometry relative="1" as="geometry" />
        </mxCell>
        <mxCell id="xqS-gfhVwGy7xidowy4n-7" style="edgeStyle=orthogonalEdgeStyle;rounded=0;orthogonalLoop=1;jettySize=auto;html=1;entryX=0;entryY=0.5;entryDx=0;entryDy=0;" parent="1" source="a3z0yzDK9rBx7ZHJhSU1-13" target="a3z0yzDK9rBx7ZHJhSU1-9" edge="1">
          <mxGeometry relative="1" as="geometry" />
        </mxCell>
        <mxCell id="a3z0yzDK9rBx7ZHJhSU1-13" value="Translation" style="strokeWidth=2;html=1;shape=mxgraph.flowchart.multi-document;whiteSpace=wrap;fillColor=#f8cecc;strokeColor=#b85450;" parent="1" vertex="1">
          <mxGeometry x="130" y="290" width="88" height="60" as="geometry" />
        </mxCell>
        <mxCell id="a3z0yzDK9rBx7ZHJhSU1-14" style="edgeStyle=orthogonalEdgeStyle;rounded=0;orthogonalLoop=1;jettySize=auto;html=1;entryX=0.5;entryY=0;entryDx=0;entryDy=0;entryPerimeter=0;" parent="1" source="a3z0yzDK9rBx7ZHJhSU1-2" target="a3z0yzDK9rBx7ZHJhSU1-13" edge="1">
          <mxGeometry relative="1" as="geometry" />
        </mxCell>
        <mxCell id="a3z0yzDK9rBx7ZHJhSU1-15" value="self-score-&lt;div&gt;folder&lt;/div&gt;" style="strokeWidth=2;html=1;shape=mxgraph.flowchart.multi-document;whiteSpace=wrap;fillColor=#f8cecc;strokeColor=#b85450;" parent="1" vertex="1">
          <mxGeometry x="246" y="60" width="88" height="60" as="geometry" />
        </mxCell>
        <mxCell id="xqS-gfhVwGy7xidowy4n-3" style="edgeStyle=orthogonalEdgeStyle;rounded=0;orthogonalLoop=1;jettySize=auto;html=1;entryX=0;entryY=0.5;entryDx=0;entryDy=0;" parent="1" source="a3z0yzDK9rBx7ZHJhSU1-22" target="a3z0yzDK9rBx7ZHJhSU1-7" edge="1">
          <mxGeometry relative="1" as="geometry">
            <Array as="points">
              <mxPoint x="70" y="440" />
            </Array>
          </mxGeometry>
        </mxCell>
        <UserObject label="master_file.fasta" link="master_file.fasta" id="a3z0yzDK9rBx7ZHJhSU1-22">
          <mxCell style="strokeWidth=2;html=1;shape=mxgraph.flowchart.document2;whiteSpace=wrap;size=0.25;fillColor=#f8cecc;strokeColor=#b85450;" parent="1" vertex="1">
            <mxGeometry x="20" y="290" width="100" height="60" as="geometry" />
          </mxCell>
        </UserObject>
        <mxCell id="a3z0yzDK9rBx7ZHJhSU1-24" value="Blast_output" style="strokeWidth=2;html=1;shape=mxgraph.flowchart.multi-document;whiteSpace=wrap;fillColor=#f8cecc;strokeColor=#b85450;" parent="1" vertex="1">
          <mxGeometry x="406" y="410" width="88" height="60" as="geometry" />
        </mxCell>
        <UserObject label="paralogous_loci_&lt;div&gt;report.tsv&lt;/div&gt;" link="master_file.fasta" id="a3z0yzDK9rBx7ZHJhSU1-26">
          <mxCell style="strokeWidth=2;html=1;shape=mxgraph.flowchart.document2;whiteSpace=wrap;size=0.25;fillColor=#d5e8d4;strokeColor=#82b366;" parent="1" vertex="1">
            <mxGeometry x="530" y="160" width="100" height="60" as="geometry" />
          </mxCell>
        </UserObject>
        <UserObject label="paralogous_loci_&lt;div&gt;report_cluster_&lt;span style=&quot;background-color: initial;&quot;&gt;by_&lt;/span&gt;&lt;/div&gt;&lt;div&gt;&lt;span style=&quot;background-color: initial;&quot;&gt;id.&lt;/span&gt;&lt;span style=&quot;background-color: initial;&quot;&gt;tsv&lt;/span&gt;&lt;/div&gt;" link="master_file.fasta" id="a3z0yzDK9rBx7ZHJhSU1-29">
          <mxCell style="strokeWidth=2;html=1;shape=mxgraph.flowchart.document2;whiteSpace=wrap;size=0.25;fillColor=#d5e8d4;strokeColor=#82b366;" parent="1" vertex="1">
            <mxGeometry x="650" y="160" width="100" height="60" as="geometry" />
          </mxCell>
        </UserObject>
        <UserObject label="paralogous_&lt;div&gt;annotations&lt;span style=&quot;background-color: transparent; color: light-dark(rgb(0, 0, 0), rgb(255, 255, 255));&quot;&gt;.tsv&lt;/span&gt;&lt;/div&gt;" link="master_file.fasta" id="a3z0yzDK9rBx7ZHJhSU1-30">
          <mxCell style="strokeWidth=2;html=1;shape=mxgraph.flowchart.document2;whiteSpace=wrap;size=0.25;fillColor=#d5e8d4;strokeColor=#82b366;" parent="1" vertex="1">
            <mxGeometry x="406" y="160" width="100" height="60" as="geometry" />
          </mxCell>
        </UserObject>
        <mxCell id="xqS-gfhVwGy7xidowy4n-1" style="edgeStyle=orthogonalEdgeStyle;rounded=0;orthogonalLoop=1;jettySize=auto;html=1;entryX=0.5;entryY=0.88;entryDx=0;entryDy=0;entryPerimeter=0;" parent="1" source="a3z0yzDK9rBx7ZHJhSU1-5" target="a3z0yzDK9rBx7ZHJhSU1-15" edge="1">
          <mxGeometry relative="1" as="geometry" />
        </mxCell>
        <mxCell id="xqS-gfhVwGy7xidowy4n-8" style="edgeStyle=orthogonalEdgeStyle;rounded=0;orthogonalLoop=1;jettySize=auto;html=1;entryX=0;entryY=0.5;entryDx=0;entryDy=0;" parent="1" source="xqS-gfhVwGy7xidowy4n-4" target="a3z0yzDK9rBx7ZHJhSU1-9" edge="1">
          <mxGeometry relative="1" as="geometry">
            <Array as="points">
              <mxPoint x="370" y="550" />
              <mxPoint x="370" y="320" />
            </Array>
          </mxGeometry>
        </mxCell>
        <mxCell id="xqS-gfhVwGy7xidowy4n-4" value="Blast_db_prot" style="strokeWidth=2;html=1;shape=mxgraph.flowchart.multi-document;whiteSpace=wrap;fillColor=#f8cecc;strokeColor=#b85450;" parent="1" vertex="1">
          <mxGeometry x="246" y="520" width="88" height="60" as="geometry" />
        </mxCell>
        <mxCell id="xqS-gfhVwGy7xidowy4n-5" style="edgeStyle=orthogonalEdgeStyle;rounded=0;orthogonalLoop=1;jettySize=auto;html=1;entryX=0.5;entryY=0;entryDx=0;entryDy=0;entryPerimeter=0;" parent="1" source="a3z0yzDK9rBx7ZHJhSU1-7" target="xqS-gfhVwGy7xidowy4n-4" edge="1">
          <mxGeometry relative="1" as="geometry" />
        </mxCell>
        <mxCell id="xqS-gfhVwGy7xidowy4n-13" value="Processes" style="rounded=0;whiteSpace=wrap;html=1;fillColor=#dae8fc;strokeColor=#6c8ebf;" parent="1" vertex="1">
          <mxGeometry x="724" y="540" width="120" height="60" as="geometry" />
        </mxCell>
        <mxCell id="xqS-gfhVwGy7xidowy4n-14" value="Temporary files" style="rounded=0;whiteSpace=wrap;html=1;fillColor=#f8cecc;strokeColor=#b85450;" parent="1" vertex="1">
          <mxGeometry x="594" y="610" width="120" height="60" as="geometry" />
        </mxCell>
        <mxCell id="xqS-gfhVwGy7xidowy4n-15" value="Input files" style="rounded=0;whiteSpace=wrap;html=1;fillColor=#e1d5e7;strokeColor=#9673a6;" parent="1" vertex="1">
          <mxGeometry x="594" y="540" width="120" height="60" as="geometry" />
        </mxCell>
        <mxCell id="xqS-gfhVwGy7xidowy4n-16" value="Output files" style="rounded=0;whiteSpace=wrap;html=1;fillColor=#d5e8d4;strokeColor=#82b366;" parent="1" vertex="1">
          <mxGeometry x="724" y="610" width="120" height="60" as="geometry" />
        </mxCell>
        <mxCell id="xqS-gfhVwGy7xidowy4n-17" value="Color description:" style="text;html=1;align=center;verticalAlign=middle;resizable=0;points=[];autosize=1;strokeColor=none;fillColor=none;" parent="1" vertex="1">
          <mxGeometry x="494" y="510" width="110" height="30" as="geometry" />
        </mxCell>
        <mxCell id="xqS-gfhVwGy7xidowy4n-19" style="edgeStyle=orthogonalEdgeStyle;rounded=0;orthogonalLoop=1;jettySize=auto;html=1;entryX=0.5;entryY=0;entryDx=0;entryDy=0;entryPerimeter=0;" parent="1" source="a3z0yzDK9rBx7ZHJhSU1-9" target="a3z0yzDK9rBx7ZHJhSU1-24" edge="1">
          <mxGeometry relative="1" as="geometry" />
        </mxCell>
        <mxCell id="xqS-gfhVwGy7xidowy4n-20" style="edgeStyle=orthogonalEdgeStyle;rounded=0;orthogonalLoop=1;jettySize=auto;html=1;entryX=0.497;entryY=0.839;entryDx=0;entryDy=0;entryPerimeter=0;" parent="1" source="a3z0yzDK9rBx7ZHJhSU1-11" target="a3z0yzDK9rBx7ZHJhSU1-30" edge="1">
          <mxGeometry relative="1" as="geometry">
            <Array as="points">
              <mxPoint x="580" y="240" />
              <mxPoint x="456" y="240" />
            </Array>
          </mxGeometry>
        </mxCell>
        <mxCell id="xqS-gfhVwGy7xidowy4n-21" style="edgeStyle=orthogonalEdgeStyle;rounded=0;orthogonalLoop=1;jettySize=auto;html=1;entryX=0.5;entryY=0.9;entryDx=0;entryDy=0;entryPerimeter=0;" parent="1" source="a3z0yzDK9rBx7ZHJhSU1-11" target="a3z0yzDK9rBx7ZHJhSU1-26" edge="1">
          <mxGeometry relative="1" as="geometry" />
        </mxCell>
        <mxCell id="Y8GRaA81SCZ0m-ySaU3--1" value="Annotation using consolidate" style="rounded=1;whiteSpace=wrap;html=1;absoluteArcSize=1;arcSize=14;strokeWidth=2;fillColor=#dae8fc;strokeColor=#6c8ebf;" vertex="1" parent="1">
          <mxGeometry x="660" y="270" width="100" height="100" as="geometry" />
        </mxCell>
        <UserObject label="Annotation file" link="master_file.fasta" id="Y8GRaA81SCZ0m-ySaU3--2">
          <mxCell style="strokeWidth=2;html=1;shape=mxgraph.flowchart.document2;whiteSpace=wrap;size=0.25;fillColor=#E1D5E7;strokeColor=#9673A6;" vertex="1" parent="1">
            <mxGeometry x="660" y="410" width="100" height="60" as="geometry" />
          </mxCell>
        </UserObject>
        <mxCell id="Y8GRaA81SCZ0m-ySaU3--5" style="edgeStyle=orthogonalEdgeStyle;rounded=0;orthogonalLoop=1;jettySize=auto;html=1;exitX=0;exitY=0.5;exitDx=0;exitDy=0;entryX=1;entryY=0.5;entryDx=0;entryDy=0;" edge="1" parent="1" source="Y8GRaA81SCZ0m-ySaU3--1" target="a3z0yzDK9rBx7ZHJhSU1-11">
          <mxGeometry relative="1" as="geometry">
            <Array as="points">
              <mxPoint x="660" y="320" />
              <mxPoint x="660" y="320" />
            </Array>
            <mxPoint x="600" y="290" as="sourcePoint" />
            <mxPoint x="720" y="240" as="targetPoint" />
          </mxGeometry>
        </mxCell>
        <mxCell id="Y8GRaA81SCZ0m-ySaU3--6" style="edgeStyle=orthogonalEdgeStyle;rounded=0;orthogonalLoop=1;jettySize=auto;html=1;exitX=0.5;exitY=0;exitDx=0;exitDy=0;exitPerimeter=0;entryX=0.5;entryY=1;entryDx=0;entryDy=0;" edge="1" parent="1" source="Y8GRaA81SCZ0m-ySaU3--2" target="Y8GRaA81SCZ0m-ySaU3--1">
          <mxGeometry relative="1" as="geometry">
            <Array as="points" />
            <mxPoint x="610" y="300" as="sourcePoint" />
            <mxPoint x="730" y="380" as="targetPoint" />
          </mxGeometry>
        </mxCell>
      </root>
    </mxGraphModel>
  </diagram>
</mxfile>
